<svg id="Capa_1" data-name="Capa 1" xmlns="http://www.w3.org/2000/svg" viewBox="0 0 23.84 16.61"><defs><style>.cls-1{opacity:0.8;}.cls-2{fill:#fff;}</style></defs><title>tedx talk</title><g class="cls-1"><path class="cls-2" d="M884.05,4314.84a3,3,0,0,0-2.58-2.34,120.9,120.9,0,0,0-17.85,0,3,3,0,0,0-2.58,2.34,38.21,38.21,0,0,0,0,11.27,3,3,0,0,0,2.58,2.34,120.8,120.8,0,0,0,17.85,0,3,3,0,0,0,2.58-2.34A38.5,38.5,0,0,0,884.05,4314.84Zm-14.58,9.33v-7.88l7.58,4Z" transform="translate(-860.63 -4312.16)"/></g></svg>